<?xml version="1.0" encoding="UTF-8"?>
<svg version="1.1" xmlns="http://www.w3.org/2000/svg" width="288" height="288">
<path d="M0 0 C1.20482529 -0.00953201 2.40965057 -0.01906403 3.65098572 -0.02888489 C4.94895584 -0.02797348 6.24692596 -0.02706207 7.58422852 -0.02612305 C8.93416983 -0.03001219 10.28410994 -0.03434731 11.63404846 -0.03910828 C14.46098806 -0.04656196 17.28780274 -0.04628547 20.11474609 -0.04101562 C23.7306929 -0.03522214 27.34612729 -0.05215252 30.9619894 -0.0753603 C33.74932322 -0.0901192 36.53653425 -0.09096644 39.32390022 -0.08785057 C41.30306885 -0.08861107 43.28221848 -0.1024666 45.26133728 -0.11653137 C46.46931473 -0.11030258 47.67729218 -0.10407379 48.921875 -0.09765625 C49.98236557 -0.09828568 51.04285614 -0.0989151 52.13548279 -0.0995636 C55.45156916 0.32980891 57.36993688 1.26678389 60.02563477 3.2746582 C60.02563477 3.9346582 60.02563477 4.5946582 60.02563477 5.2746582 C65.07573071 6.21251903 65.07573071 6.21251903 70.02563477 5.2746582 C70.02563477 4.6146582 70.02563477 3.9546582 70.02563477 3.2746582 C73.76215092 0.44654407 76.51829085 -0.09764806 81.14526367 -0.08178711 C82.35646881 -0.08478821 83.56767395 -0.08778931 84.81558228 -0.09088135 C86.11466522 -0.07853455 87.41374817 -0.06618774 88.75219727 -0.0534668 C90.10549713 -0.05040642 91.45880015 -0.04853242 92.81210327 -0.04779053 C95.64154203 -0.04319851 98.47069442 -0.0288134 101.30004883 -0.0065918 C104.92609547 0.02174386 108.55191749 0.03262651 112.17806435 0.0370903 C114.96959678 0.04124666 117.76108392 0.05106508 120.55259323 0.06296539 C122.53958377 0.07142627 124.52658233 0.07793146 126.51358032 0.08441162 C127.71848114 0.09401917 128.92338196 0.10362671 130.16479492 0.11352539 C131.7576683 0.1237674 131.7576683 0.1237674 133.38272095 0.13421631 C136.02563477 0.2746582 136.02563477 0.2746582 139.02563477 1.2746582 C140.07275391 2.99609375 140.07275391 2.99609375 140.99829102 5.22387695 C141.33876465 6.04291504 141.67923828 6.86195312 142.0300293 7.70581055 C143.61621423 11.7984633 145.05954299 15.92877553 146.46313477 20.0871582 C150.03356298 30.49750055 153.72378621 40.86159403 157.46313477 51.2121582 C157.74408997 51.99026855 158.02504517 52.76837891 158.31451416 53.57006836 C162.10574114 64.06173318 165.97300682 74.52133913 169.92382812 84.95410156 C172.75629599 92.46794588 175.39938297 100.03907445 178.00732422 107.63330078 C180.74813987 115.57509038 183.68969852 123.43232239 186.66796875 131.28759766 C189.61026301 139.08160793 192.36173406 146.93088401 195.06542969 154.81030273 C197.66110052 162.33170868 200.44185183 169.77169207 203.32470703 177.1875 C209.80205881 193.89862981 209.80205881 193.89862981 209.02563477 201.2746582 C205.62131529 203.54420452 203.86039274 203.64015769 199.83813477 203.8996582 C198.20811523 204.01180664 198.20811523 204.01180664 196.54516602 204.1262207 C195.29799805 204.19969727 195.29799805 204.19969727 194.02563477 204.2746582 C193.76008789 205.26208008 193.49454102 206.24950195 193.22094727 207.2668457 C192.86452723 208.56121319 192.50773711 209.8554788 192.15063477 211.1496582 C191.88959961 212.12612305 191.88959961 212.12612305 191.62329102 213.12231445 C190.25219727 218.0480957 190.25219727 218.0480957 188.02563477 220.2746582 C185.52188008 220.51981517 183.12013997 220.64799478 180.61157227 220.6887207 C179.51711288 220.71776993 179.51711288 220.71776993 178.40054321 220.74740601 C176.06735974 220.80724243 173.73412703 220.85360243 171.40063477 220.8996582 C169.81988394 220.93783434 168.239154 220.97688586 166.65844727 221.0168457 C162.78101247 221.11294698 158.90348028 221.19696232 155.02563477 221.2746582 C154.60411133 222.41805664 154.18258789 223.56145508 153.74829102 224.73950195 C153.19504956 226.2304408 152.6416563 227.72132332 152.08813477 229.2121582 C151.8103418 229.9669043 151.53254883 230.72165039 151.24633789 231.49926758 C149.13891602 237.16137695 149.13891602 237.16137695 148.02563477 238.2746582 C142.34341967 239.36274195 136.79748626 239.37917865 131.02563477 239.2746582 C131.10813477 240.5327832 131.19063477 241.7909082 131.27563477 243.0871582 C131.41625977 245.23168945 131.41625977 245.23168945 131.02563477 247.2746582 C128.01875052 250.10775792 125.94220183 250.65139494 121.86401367 250.66233826 C120.82094055 250.67224289 119.77786743 250.68214752 118.70318604 250.69235229 C117.56435974 250.68785065 116.42553345 250.683349 115.25219727 250.67871094 C114.04859558 250.68557419 112.8449939 250.69243744 111.60491943 250.69950867 C108.3072815 250.71467372 105.01020881 250.71627105 101.71257782 250.71056628 C98.95899095 250.70747565 96.20545527 250.71356536 93.45187569 250.71960503 C86.95623642 250.73365007 80.46072868 250.7320888 73.96508789 250.72070312 C67.26436592 250.70921752 60.56404398 250.72330466 53.86337471 250.7500996 C48.10868574 250.77224988 42.35412242 250.77889567 36.59939384 250.77302319 C33.16302789 250.76965125 29.72691847 250.7720841 26.29058838 250.78927422 C22.45992313 250.80760098 18.62975083 250.79356316 14.79907227 250.77636719 C13.09083282 250.79086914 13.09083282 250.79086914 11.3480835 250.80566406 C10.30501038 250.79582993 9.26193726 250.78599579 8.18725586 250.77586365 C7.28171967 250.77565436 6.37618347 250.77544508 5.44320679 250.77522945 C2.21648692 250.1071198 1.0125822 248.86017659 -0.97436523 246.2746582 C-1.22436523 242.5246582 -1.22436523 242.5246582 -0.97436523 239.2746582 C-1.6150293 239.28625977 -2.25569336 239.29786133 -2.91577148 239.30981445 C-13.65051789 239.42180138 -13.65051789 239.42180138 -17.97436523 238.2746582 C-19.43530273 236.1496582 -19.43530273 236.1496582 -20.97436523 233.2746582 C-21.57635742 232.17508789 -22.17834961 231.07551758 -22.79858398 229.94262695 C-24.5238444 226.7199707 -26.24910482 223.49731445 -27.97436523 220.2746582 C-28.83715088 220.28513184 -29.69993652 220.29560547 -30.58886719 220.30639648 C-33.79247044 220.34049803 -36.99598113 220.36556677 -40.19970703 220.38452148 C-41.58580572 220.3945739 -42.97188322 220.4082179 -44.35791016 220.42553711 C-46.35106274 220.44981772 -48.34437056 220.46007851 -50.33764648 220.4699707 C-52.13649292 220.48568115 -52.13649292 220.48568115 -53.97167969 220.50170898 C-56.97436523 220.2746582 -56.97436523 220.2746582 -59.97436523 218.2746582 C-60.92358398 215.77856445 -60.92358398 215.77856445 -61.66186523 212.8371582 C-61.91323242 211.86907227 -62.16459961 210.90098633 -62.42358398 209.90356445 C-62.97436523 207.2746582 -62.97436523 207.2746582 -62.97436523 204.2746582 C-64.32981445 204.20118164 -64.32981445 204.20118164 -65.71264648 204.1262207 C-66.89213867 204.05145508 -68.07163086 203.97668945 -69.28686523 203.8996582 C-70.45862305 203.83004883 -71.63038086 203.76043945 -72.83764648 203.6887207 C-75.97436523 203.2746582 -75.97436523 203.2746582 -78.97436523 201.2746582 C-79.75579146 194.51636448 -77.89979416 189.22576846 -75.53686523 182.95043945 C-75.17850586 181.96835007 -74.82014648 180.98626068 -74.45092773 179.97441101 C-73.30404508 176.84077552 -72.1394315 173.71407226 -70.97436523 170.5871582 C-70.22191386 168.53744954 -69.47060208 166.48732214 -68.72045898 164.43676758 C-64.78212674 153.70196333 -60.75799413 143.00033001 -56.65222168 132.32844543 C-54.56247056 126.88322807 -52.577921 121.40833379 -50.66186523 115.8996582 C-50.18620117 114.53309082 -50.18620117 114.53309082 -49.70092773 113.13891602 C-49.44053711 112.38449219 -49.18014648 111.63006836 -48.91186523 110.8527832 C-41.71196978 90.07808485 -34.23400369 69.39910171 -26.78686523 48.7121582 C-26.40936127 47.66332458 -26.0318573 46.61449097 -25.64291382 45.53387451 C-25.2723587 44.50457825 -24.90180359 43.47528198 -24.52001953 42.41479492 C-24.15292374 41.39490479 -23.78582794 40.37501465 -23.40760803 39.32421875 C-22.67848333 37.30248363 -21.94734026 35.28147518 -21.21409607 33.26123047 C-19.36426078 28.16162406 -17.54710714 23.05403161 -15.78442383 17.92358398 C-15.42950363 16.90651871 -15.07458344 15.88945343 -14.70890808 14.84156799 C-14.03474291 12.90809873 -13.37179687 10.97066914 -12.72187805 9.02891541 C-12.26811043 7.7391555 -12.26811043 7.7391555 -11.80517578 6.42333984 C-11.54705612 5.66767227 -11.28893646 4.9120047 -11.022995 4.13343811 C-8.58691275 -0.184712 -4.53555474 0.0197199 0 0 Z " fill="#2D2D27" transform="translate(78.974365234375,18.725341796875)"/>
<path d="M0 0 C0.81973801 -0.00029205 1.63947601 -0.00058411 2.48405457 -0.00088501 C5.19496222 0.0005089 7.9055954 0.01607297 10.61645508 0.03173828 C12.49546661 0.03546819 14.37448009 0.03831527 16.25349426 0.04031372 C21.2002804 0.04795189 26.1469492 0.06760199 31.09368896 0.08972168 C36.14097506 0.11017612 41.18828011 0.11931458 46.2355957 0.12939453 C56.13994415 0.15084768 66.04420548 0.18498588 75.94848633 0.22705078 C76.94848633 2.22705078 76.94848633 2.22705078 76.88598633 5.72705078 C76.54435821 9.28583544 76.54435821 9.28583544 78.94848633 11.22705078 C79.58129883 13.60986328 79.58129883 13.60986328 80.07348633 16.35205078 C80.24106445 17.26212891 80.40864258 18.17220703 80.58129883 19.10986328 C80.7024707 19.80853516 80.82364258 20.50720703 80.94848633 21.22705078 C81.60848633 21.22705078 82.26848633 21.22705078 82.94848633 21.22705078 C84.31971546 25.31573681 85.68884265 29.40511926 87.05615234 33.49511719 C87.52011461 34.88202205 87.98461853 36.26874585 88.44970703 37.65527344 C91.07302624 45.47722631 93.64327022 53.30408893 95.94848633 61.22705078 C98.63480529 70.3350359 98.63480529 70.3350359 101.94848633 79.22705078 C105.56095431 88.00834646 108.3044836 96.72801054 108.94848633 106.22705078 C109.60848633 106.22705078 110.26848633 106.22705078 110.94848633 106.22705078 C113.72470899 111.7794961 113.78874265 116.548943 111.96801758 122.35205078 C109.65184969 128.50949404 106.94133677 134.37653511 103.94848633 140.22705078 C77.78420331 142.90132076 77.78420331 142.90132076 70.39770508 138.81640625 C66.32147675 135.08689852 63.7762319 130.45844629 61.24926758 125.59619141 C59.14309177 121.7601685 56.45010433 118.41663995 53.76098633 114.97705078 C52.77508601 113.6653691 51.79196172 112.35159579 50.81176758 111.03564453 C45.29771571 103.68419906 39.7084764 96.38776571 33.94848633 89.22705078 C30.33118856 90.69632846 28.58243853 92.62506693 26.26098633 95.72705078 C25.65899414 96.52111328 25.05700195 97.31517578 24.43676758 98.13330078 C22.9240367 100.14787317 22.9240367 100.14787317 21.94848633 102.22705078 C21.28848633 102.22705078 20.62848633 102.22705078 19.94848633 102.22705078 C19.70743164 102.94248047 19.46637695 103.65791016 19.21801758 104.39501953 C17.76671701 107.63253618 15.94854509 109.85387329 13.63598633 112.53955078 C10.81545583 115.88609661 8.24737919 119.15151849 6.01098633 122.91455078 C5.33036133 124.00767578 4.64973633 125.10080078 3.94848633 126.22705078 C3.28848633 126.22705078 2.62848633 126.22705078 1.94848633 126.22705078 C1.70098633 126.94892578 1.45348633 127.67080078 1.19848633 128.41455078 C-0.17307958 131.50057408 -1.87593191 133.6559087 -4.05151367 136.22705078 C-4.44314697 136.92926758 -4.83478027 137.63148438 -5.23828125 138.35498047 C-7.05151367 140.22705078 -7.05151367 140.22705078 -10.23779297 140.68115234 C-11.52081299 140.66020508 -12.80383301 140.63925781 -14.12573242 140.61767578 C-14.80956497 140.61201599 -15.49339752 140.6063562 -16.19795227 140.6005249 C-18.37902266 140.57815894 -20.55844121 140.52796843 -22.73901367 140.47705078 C-24.21880763 140.45698578 -25.69862737 140.438735 -27.1784668 140.42236328 C-30.80335127 140.37829552 -34.42727123 140.309269 -38.05151367 140.22705078 C-38.68512553 138.96833826 -39.31774253 137.70912492 -39.94995117 136.44970703 C-40.47854736 135.39795288 -40.47854736 135.39795288 -41.01782227 134.32495117 C-44.47185191 127.31491888 -47.75951463 120.19206158 -47.05151367 112.22705078 C-46.74270264 111.61692139 -46.4338916 111.00679199 -46.11572266 110.37817383 C-44.90611486 107.93315105 -44.36737815 105.65867681 -43.77416992 102.99658203 C-42.05311368 95.88094551 -39.69033569 89.03405392 -37.26843262 82.13613892 C-35.91653489 78.28280692 -34.58321517 74.42306948 -33.25073242 70.56298828 C-32.98024078 69.77984756 -32.70974915 68.99670685 -32.43106079 68.18983459 C-29.78624823 60.50543944 -27.27526742 52.78044062 -24.80151367 45.03955078 C-24.4980603 44.09024689 -24.4980603 44.09024689 -24.18847656 43.12176514 C-23.98794678 42.49441467 -23.78741699 41.86706421 -23.58081055 41.22070312 C-20.62087798 31.96548169 -17.58144689 22.73981908 -14.47436523 13.53295898 C-14.16853516 12.62376709 -13.86270508 11.7145752 -13.54760742 10.77783203 C-13.28133545 9.99061768 -13.01506348 9.20340332 -12.74072266 8.39233398 C-12.01041947 6.25029103 -12.01041947 6.25029103 -11.64550781 4.06762695 C-9.9834725 -1.08242822 -4.3872444 -0.04072244 0 0 Z " fill="#036784" transform="translate(111.051513671875,59.77294921875)"/>
<path d="M0 0 C33.66 0 67.32 0 102 0 C104.35895478 5.89738694 106.6121277 11.58987607 108.59375 17.5859375 C108.82154144 18.27214172 109.04933289 18.95834595 109.2840271 19.66534424 C110.02549428 21.9009768 110.76272458 24.13798197 111.5 26.375 C112.02978485 27.97455457 112.55990243 29.57399897 113.09033203 31.17333984 C114.1881345 34.48427654 115.28452367 37.79567608 116.37988281 41.10742188 C118.38324412 47.16137502 120.40017891 53.21077297 122.41918945 59.25952148 C123.392112 62.17470097 124.36177413 65.09093502 125.32885742 68.00805664 C127.81492419 75.49931895 130.32903198 82.97938669 132.89996338 90.4420166 C134.22359212 94.28918791 135.53577436 98.14021939 136.84698486 101.99163818 C137.48551234 103.85716852 138.12943134 105.72086304 138.7789917 107.58258057 C139.68545843 110.18206686 140.57304388 112.78733 141.45703125 115.39453125 C141.86694557 116.54685493 141.86694557 116.54685493 142.28514099 117.72245789 C144.86196148 125.44488036 143.1804593 131.26103185 140.09375 138.6484375 C139.80898804 139.34643463 139.52422607 140.04443176 139.23083496 140.76358032 C138.63270042 142.22558454 138.03079821 143.68605254 137.42529297 145.14501953 C136.49529655 147.38633545 135.57679171 149.63209717 134.66015625 151.87890625 C134.07617629 153.30235241 133.49156361 154.7255392 132.90625 156.1484375 C132.49215881 157.15769791 132.49215881 157.15769791 132.06970215 158.18734741 C130.11737089 162.88262911 130.11737089 162.88262911 129 164 C123.32465779 164.48812936 117.65033961 164.65681587 111.95678711 164.78955078 C110.04245216 164.84606847 108.12867798 164.92771124 106.21655273 165.03564453 C90.82116292 165.88834517 90.82116292 165.88834517 86.19921875 162.79464722 C82.65333561 159.36509241 80.37647438 155.28402817 78 151 C76.99867647 149.64845841 75.97083655 148.31539921 74.8984375 147.01953125 C74.47530273 146.48094482 74.05216797 145.9423584 73.61621094 145.38745117 C73.20661133 144.86771729 72.79701172 144.3479834 72.375 143.8125 C71.91899414 143.23282471 71.46298828 142.65314941 70.99316406 142.0559082 C67.63811792 137.79617682 64.25351373 133.5606793 60.859375 129.33203125 C57.87006257 125.58283058 54.93239984 121.79379229 52 118 C48.70593799 119.39446254 47.04595247 120.88121044 44.9375 123.75 C44.3290625 124.56082031 43.720625 125.37164062 43.09375 126.20703125 C42.4028125 127.12871094 41.711875 128.05039063 41 129 C39.31728978 131.14982621 37.62994454 133.29538541 35.9375 135.4375 C31.42284999 141.17606843 26.92568384 146.92821345 22.4375 152.6875 C21.82962646 153.46601318 21.22175293 154.24452637 20.59545898 155.04663086 C20.02641846 155.77760986 19.45737793 156.50858887 18.87109375 157.26171875 C18.36505615 157.91100342 17.85901855 158.56028809 17.33764648 159.22924805 C16.16781661 160.77784744 15.07655605 162.38516592 14 164 C12.20297241 164.36076355 12.20297241 164.36076355 10.00927734 164.34057617 C8.77822769 164.34023628 8.77822769 164.34023628 7.52230835 164.33988953 C6.63580597 164.32440567 5.74930359 164.30892181 4.8359375 164.29296875 C3.92872955 164.28872391 3.02152161 164.28447906 2.08682251 164.28010559 C-0.81741732 164.26328133 -3.7209691 164.2256226 -6.625 164.1875 C-8.59113583 164.17245799 -10.55728251 164.15876875 -12.5234375 164.14648438 C-17.34922439 164.11336557 -22.17449545 164.06155786 -27 164 C-30.52304669 156.29892033 -34.01341182 148.58555654 -37.375 140.8125 C-37.83777344 139.78447266 -38.30054688 138.75644531 -38.77734375 137.69726562 C-39.20917969 136.68986328 -39.64101563 135.68246094 -40.0859375 134.64453125 C-40.6744751 133.30418823 -40.6744751 133.30418823 -41.27490234 131.93676758 C-42.81688441 125.69148062 -40.72350334 119.43724449 -38.69018555 113.50292969 C-38.4557222 112.79880951 -38.22125885 112.09468933 -37.97969055 111.36923218 C-37.20579167 109.05100268 -36.42130877 106.73650572 -35.63671875 104.421875 C-35.08330365 102.77099523 -34.53056829 101.11988746 -33.97846985 99.46856689 C-32.51833071 95.10721006 -31.04926035 90.74891396 -29.57818604 86.39123535 C-28.12968992 82.09587313 -26.68904792 77.79788124 -25.24804688 73.5 C-23.53814019 68.40151097 -21.82707497 63.30342362 -20.11056519 58.20715332 C-17.24588476 49.70087857 -14.39432879 41.19060294 -11.57275391 32.66992188 C-11.29750413 31.83973667 -11.02225435 31.00955147 -10.73866367 30.15420914 C-9.43364493 26.21810899 -8.13128793 22.28117329 -6.83415222 18.34246826 C-6.36850012 16.93692372 -5.90271282 15.53142395 -5.43676758 14.12597656 C-5.03686111 12.91379456 -4.63695465 11.70161255 -4.22492981 10.45269775 C-2.96839007 6.91090139 -1.48038277 3.45422646 0 0 Z M7 13 C6.0805493 15.40540168 5.31931287 17.71752887 4.625 20.1875 C2.90321255 26.09856606 1.03594382 31.94484873 -0.92424011 37.78175354 C-2.64331632 42.90893619 -4.3202809 48.04877969 -5.98046875 53.1953125 C-6.50542806 54.82097143 -7.03041221 56.44662233 -7.55541992 58.07226562 C-7.82196381 58.89766846 -8.08850769 59.72307129 -8.36312866 60.57348633 C-13.06021961 75.11146359 -17.84352331 89.60860667 -22.9284668 104.01611328 C-24.90362841 109.64488197 -26.62384901 115.19711702 -28 121 C-28.495 121.99 -28.495 121.99 -29 123 C-29.36177821 127.8005185 -28.41021674 131.38441375 -26.75 135.875 C-26.33234375 137.02742188 -25.9146875 138.17984375 -25.484375 139.3671875 C-23.84833299 143.37118504 -21.97766541 147.15453947 -20 151 C-15.75048792 151.29939657 -11.50671289 151.51550918 -7.24975586 151.65917969 C-5.80661082 151.71910266 -4.36418161 151.80069404 -2.92358398 151.90527344 C5.22189976 152.66493262 5.22189976 152.66493262 12.57843018 149.81567383 C15.84177573 146.46994933 20 141.80833909 20 137 C20.66 137 21.32 137 22 137 C23.31592117 135.31773083 23.31592117 135.31773083 24.625 133.125 C27.53328249 128.58349483 30.7917749 124.47952279 34.265625 120.359375 C36.01846598 117.97487961 37.03228374 115.78465292 38 113 C38.66 113 39.32 113 40 113 C41.18851281 111.3746221 41.18851281 111.3746221 42.3125 109.3125 C44.51607249 105.62020442 46.83510818 102.89361538 50 100 C54.61259487 101.55200251 56.72195736 105.27936935 59.4375 109.0625 C60.50820956 110.52279942 61.57985548 111.98241266 62.65234375 113.44140625 C63.20390137 114.19566895 63.75545898 114.94993164 64.32373047 115.72705078 C65.94632311 117.92721644 67.5925115 120.10636785 69.25390625 122.27734375 C69.78749756 122.97537109 70.32108887 123.67339844 70.87084961 124.39257812 C71.96293222 125.80526464 73.06681133 127.20890498 74.18188477 128.60351562 C76.99022337 132.15469449 79.37720986 135.57024704 81.3984375 139.62890625 C83.92400884 144.34167537 86.15383769 148.42153088 91 151 C101.1723321 152.9553576 111.75614043 151.97955259 122 151 C129.46361403 137.19389243 129.46361403 137.19389243 131 122 C130.11785113 119.11785113 130.11785113 119.11785113 129 117 C128.34 117 127.68 117 127 117 C126.92523438 116.35417969 126.85046875 115.70835937 126.7734375 115.04296875 C125.81854764 108.19959139 124.14565426 101.75779149 122.0625 95.1875 C121.80968262 94.38787842 121.55686523 93.58825684 121.29638672 92.7644043 C120.13734801 89.19175482 118.91532713 85.70074213 117.40234375 82.26171875 C116.16190635 79.37657883 115.26607727 76.66194917 114.5 73.625 C113.24001315 68.6600518 111.64296565 63.84794792 110 59 C109.49912647 57.50029146 108.99911565 56.00029449 108.5 54.5 C108.2525 53.7575 108.005 53.015 107.75 52.25 C105.5 45.5 103.25 38.75 101 32 C100.34 32 99.68 32 99 32 C98.81824219 30.96939453 98.81824219 30.96939453 98.6328125 29.91796875 C98.46523437 29.01691406 98.29765625 28.11585937 98.125 27.1875 C97.96257812 26.29417969 97.80015625 25.40085937 97.6328125 24.48046875 C97.08811551 21.77272154 97.08811551 21.77272154 95 19 C94.95919217 17.00041636 94.95745644 14.99954746 95 13 C94.505 12.01 94.505 12.01 94 11 C83.09959048 10.9537044 72.19920427 10.91814493 61.29871655 10.89637566 C56.23743917 10.88592867 51.17622895 10.87175277 46.11499023 10.84912109 C41.23262686 10.82742535 36.35032816 10.81543827 31.4679203 10.81024551 C29.6031524 10.80654388 27.73838813 10.79931571 25.87364769 10.78853989 C23.26619123 10.7740684 20.65900369 10.77202023 18.05151367 10.77294922 C17.27683746 10.76575867 16.50216125 10.75856812 15.70401001 10.75115967 C11.92155618 10.76578763 10.22811298 10.84792468 7 13 Z " fill="#2D2E27" transform="translate(93,49)"/>
<path d="M0 0 C7.36429564 -0.22932893 14.72766221 -0.3862717 22.09472656 -0.49438477 C24.5973552 -0.53947863 27.09974892 -0.6007734 29.6015625 -0.67895508 C33.21152809 -0.78889233 36.81834595 -0.83933723 40.4296875 -0.87890625 C41.53738495 -0.92535782 42.6450824 -0.97180939 43.78634644 -1.01966858 C50.38090827 -1.0238963 53.57399314 -0.04941294 58.41064453 4.55493164 C59.15573273 5.38231339 59.90082092 6.20969513 60.66848755 7.06214905 C62.89422759 9.23301405 62.89422759 9.23301405 66 9.55563354 C69.85012286 8.84254774 70.99345446 7.43754489 73.58935547 4.55493164 C78.42600686 -0.04941294 81.61909173 -1.0238963 88.21365356 -1.01966858 C89.87519974 -0.94999123 89.87519974 -0.94999123 91.5703125 -0.87890625 C92.73255341 -0.86617172 93.89479431 -0.85343719 95.09225464 -0.84031677 C98.77203968 -0.79029117 102.4467288 -0.67744597 106.125 -0.5625 C108.63274082 -0.51731402 111.14055965 -0.47625671 113.6484375 -0.43945312 C119.76733743 -0.34070123 125.88330466 -0.19047785 132 0 C136.13331589 10.50544937 140.15160921 21.02829326 143.875 31.6875 C144.82959529 34.40060128 145.78750564 37.11252592 146.74609375 39.82421875 C147.12862053 40.90677444 147.12862053 40.90677444 147.51887512 42.01119995 C150.9448379 51.69099591 154.44226095 61.34505335 157.9375 71 C158.28936371 71.97224518 158.64122742 72.94449036 159.00375366 73.94619751 C163.43382154 86.18442134 167.87756927 98.41765065 172.328125 110.6484375 C172.77519302 111.8771759 173.22226105 113.10591431 173.68287659 114.37188721 C175.86196925 120.36041639 178.04216803 126.34853889 180.22436523 132.3359375 C183.69931147 141.87466556 187.17214429 151.41434436 190.58203125 160.9765625 C190.8325676 161.67252533 191.08310394 162.36848816 191.3412323 163.08554077 C193 167.76709127 193 167.76709127 193 170 C186.4 170 179.8 170 173 170 C172.525625 171.959375 172.05125 173.91875 171.5625 175.9375 C170.125 181.875 170.125 181.875 169 183 C166.13732433 183.07325168 163.299281 183.09238205 160.4375 183.0625 C159.63119141 183.05798828 158.82488281 183.05347656 157.99414062 183.04882812 C155.99606244 183.03700518 153.99802217 183.01906914 152 183 C154.05338861 176.48529224 156.49534683 170.21269971 159.1875 163.9375 C159.55552734 163.07189453 159.92355469 162.20628906 160.30273438 161.31445312 C161.19871727 159.20831152 162.09891311 157.10396298 163 155 C166.96 155 170.92 155 175 155 C174.69634521 154.17878662 174.39269043 153.35757324 174.07983398 152.51147461 C164.92012734 127.72510386 155.84390981 102.90847218 146.78881836 78.08374023 C138.87320959 56.38399431 130.93619764 34.69227355 123 13 C85.38 13 47.76 13 9 13 C3.39 28.51 -2.22 44.02 -8 60 C-11.23735223 68.85105877 -14.47577044 77.70128098 -17.73046875 86.54589844 C-19.04238753 90.11532669 -20.34991462 93.68633727 -21.65625 97.2578125 C-28.70679227 116.52912554 -35.84103208 135.76874421 -43 155 C-39.04 155 -35.08 155 -31 155 C-29.42885366 158.6642354 -27.86239884 162.33043621 -26.30029297 165.99853516 C-25.76805615 167.24648273 -25.23453322 168.4938826 -24.69970703 169.74072266 C-23.93185131 171.53143628 -23.16897715 173.32428343 -22.40625 175.1171875 C-21.94541016 176.19597168 -21.48457031 177.27475586 -21.00976562 178.38623047 C-20 181 -20 181 -20 183 C-25.61 183 -31.22 183 -37 183 C-41 173.375 -41 173.375 -41 170 C-47.6 170 -54.2 170 -61 170 C-58.68803905 160.70171343 -55.50456411 151.83107574 -52.19403076 142.85455322 C-50.40781322 138.01061201 -48.6368282 133.1610914 -46.86328125 128.3125 C-46.47938232 127.26426056 -46.0954834 126.21602112 -45.69995117 125.13601685 C-42.62224532 116.72479735 -39.57641798 108.30225859 -36.54296875 99.875 C-36.31110807 99.23090242 -36.0792474 98.58680485 -35.84036064 97.92318916 C-34.65955771 94.64266332 -33.47909517 91.36201509 -32.29873657 88.08132935 C-25.58751017 69.42990405 -18.86173509 50.78421625 -12 32.1875 C-11.5924649 31.08284393 -11.5924649 31.08284393 -11.17669678 29.95587158 C-7.48524055 19.9577857 -3.74957104 9.97641851 0 0 Z " fill="#E6C359" transform="translate(78,30)"/>
<path d="M0 0 C3.23885979 1.37912739 4.87566764 2.79203139 6.9375 5.625 C10.4275628 10.28602069 14.06492527 14.80551535 17.75 19.3125 C27 30.62696228 27 30.62696228 27 33 C13.45247325 34.79525508 13.45247325 34.79525508 9.39111328 31.82226562 C7.03811245 29.28788247 5.38335643 26.59694972 3.6015625 23.625 C3.07304687 22.75875 2.54453125 21.8925 2 21 C1.34 21 0.68 21 0 21 C-1.5187952 22.79914077 -2.9168647 24.60840478 -4.3125 26.5 C-4.74097733 27.04760986 -5.16945465 27.59521973 -5.61091614 28.15942383 C-8.13666718 31.40021502 -10.39337816 34.61118646 -12.40380859 38.19726562 C-15.83249653 43.84722708 -19.32755964 48.9516355 -25.93942261 50.83911133 C-34.38131386 52.00669668 -42.83375113 51.45793128 -51.3125 51 C-53.90277446 50.9196362 -56.49328894 50.84665096 -59.08398438 50.78125 C-65.3953044 50.60596062 -71.69498499 50.33058813 -78 50 C-76.02 54.29 -74.04 58.58 -72 63 C-23.49 63.33 25.02 63.66 75 64 C75.33 62.02 75.66 60.04 76 58 C76.86173773 55.57999041 77.92410684 53.33889818 79 51 C78.03835434 51.00967804 77.07670868 51.01935608 76.08592224 51.02932739 C67.0079935 51.11414405 57.93119569 51.14617034 48.8528738 51.12697029 C44.18573051 51.11878396 39.52015624 51.1289716 34.85327148 51.18164062 C30.34622013 51.2318217 25.8415269 51.23309652 21.33433723 51.20095444 C19.6179705 51.19721305 17.90147189 51.21087567 16.18539238 51.24249649 C2.69540507 51.47417198 2.69540507 51.47417198 -1.65231323 47.69378662 C-3.42291082 45.18875594 -4.8071039 42.82062304 -6 40 C-4.26978364 36.44687712 -2.32923059 33.20269206 0 30 C0.66 30 1.32 30 2 30 C6 35.41176471 6 35.41176471 6 38 C40.32 38 74.64 38 110 38 C110.99 34.7 111.98 31.4 113 28 C113.33 27.01 113.66 26.02 114 25 C119.28 25 124.56 25 130 25 C130.66 26.98 131.32 28.96 132 31 C131.07767578 31.03867188 131.07767578 31.03867188 130.13671875 31.078125 C129.32847656 31.13484375 128.52023437 31.1915625 127.6875 31.25 C126.88699219 31.29640625 126.08648437 31.3428125 125.26171875 31.390625 C122.21477249 32.21156389 121.65627866 33.33868581 120 36 C119.00202599 39.02933983 119.00202599 39.02933983 118.3125 42.25 C117.93544922 43.86648437 117.93544922 43.86648437 117.55078125 45.515625 C117.27814453 46.74539062 117.27814453 46.74539062 117 48 C116.01604248 48.00410889 115.03208496 48.00821777 114.01831055 48.01245117 C110.36689905 48.03422662 106.71656767 48.0884972 103.06567383 48.15258789 C101.48570103 48.17578224 99.9055733 48.19016704 98.32543945 48.19555664 C96.05321561 48.20483685 93.78343285 48.24579747 91.51171875 48.29296875 C90.80536789 48.2890361 90.09901703 48.28510345 89.3712616 48.28105164 C87.12532929 48.29350364 87.12532929 48.29350364 84 49 C81.18417261 52.49349539 79.87756967 56.62488114 78.3125 60.8125 C77.87550781 61.97394531 77.43851563 63.13539063 76.98828125 64.33203125 C76.66214844 65.21246094 76.33601562 66.09289062 76 67 C74.79601562 67.04898438 73.59203125 67.09796875 72.3515625 67.1484375 C70.77601802 67.22346343 69.20049834 67.29901133 67.625 67.375 C66.8309375 67.4059375 66.036875 67.436875 65.21875 67.46875 C60.63332625 67.51816421 60.63332625 67.51816421 57 70 C56.67 72.64 56.34 75.28 56 78 C20.03 78 -15.94 78 -53 78 C-53.99 75.03 -54.98 72.06 -56 69 C-56.33 68.67 -56.66 68.34 -57 68 C-58.2271875 68.08121094 -59.454375 68.16242188 -60.71875 68.24609375 C-70.38737596 68.76103323 -70.38737596 68.76103323 -75 67 C-79.60245626 62.79730587 -81.90370613 56.74335484 -84 51 C-84 50.34 -84 49.68 -84 49 C-87.35735137 47.88088288 -89.88205386 47.88634414 -93.41796875 47.90234375 C-94.67158203 47.90556641 -95.92519531 47.90878906 -97.21679688 47.91210938 C-99.18229492 47.92467773 -99.18229492 47.92467773 -101.1875 47.9375 C-102.52278481 47.94251683 -103.85807141 47.94707941 -105.19335938 47.95117188 C-108.46228473 47.96297305 -111.73111991 47.97943703 -115 48 C-115.18175781 47.18015625 -115.36351562 46.3603125 -115.55078125 45.515625 C-115.80214844 44.43796875 -116.05351563 43.3603125 -116.3125 42.25 C-116.55613281 41.18265625 -116.79976562 40.1153125 -117.05078125 39.015625 C-117.98485513 36.04811457 -118.89123481 34.26195319 -121 32 C-123.26300895 31.3078631 -123.26300895 31.3078631 -125.6875 31.25 C-126.49574219 31.19328125 -127.30398437 31.1365625 -128.13671875 31.078125 C-129.05904297 31.03945312 -129.05904297 31.03945312 -130 31 C-129.67 29.68 -129.34 28.36 -129 27 C-123.39 27 -117.78 27 -112 27 C-110.68 29.97 -109.36 32.94 -108 36 C-98.02089362 36.30235881 -88.04289071 36.53275901 -78.06012249 36.67355824 C-73.42343614 36.74116962 -68.78990141 36.83270961 -64.1550293 36.98071289 C-59.67432511 37.12288348 -55.19663298 37.19987229 -50.71384621 37.23340416 C-49.01151926 37.25726798 -47.30934179 37.30387742 -45.60831261 37.37449074 C-36.49511885 37.9395691 -36.49511885 37.9395691 -28.22961807 34.75161362 C-25.01684704 31.7387615 -22.50780351 28.32330875 -20.10708046 24.64696312 C-18.39387656 22.09829232 -16.41376605 19.78429377 -14.4375 17.4375 C-13.37015625 16.12652344 -13.37015625 16.12652344 -12.28125 14.7890625 C-8.22421194 9.82891665 -4.10986355 4.9163921 0 0 Z " fill="#E6C153" transform="translate(143,180)"/>
<path d="M0 0 C33.66 0 67.32 0 102 0 C104.35895478 5.89738694 106.6121277 11.58987607 108.59375 17.5859375 C108.82154144 18.27214172 109.04933289 18.95834595 109.2840271 19.66534424 C110.02549428 21.9009768 110.76272458 24.13798197 111.5 26.375 C112.02978485 27.97455457 112.55990243 29.57399897 113.09033203 31.17333984 C114.1881345 34.48427654 115.28452367 37.79567608 116.37988281 41.10742188 C118.38324412 47.16137502 120.40017891 53.21077297 122.41918945 59.25952148 C123.392112 62.17470097 124.36177413 65.09093502 125.32885742 68.00805664 C127.81492419 75.49931895 130.32903198 82.97938669 132.89996338 90.4420166 C134.22359212 94.28918791 135.53577436 98.14021939 136.84698486 101.99163818 C137.48551234 103.85716852 138.12943134 105.72086304 138.7789917 107.58258057 C139.68545843 110.18206686 140.57304388 112.78733 141.45703125 115.39453125 C141.86694557 116.54685493 141.86694557 116.54685493 142.28514099 117.72245789 C144.86196148 125.44488036 143.1804593 131.26103185 140.09375 138.6484375 C139.80898804 139.34643463 139.52422607 140.04443176 139.23083496 140.76358032 C138.63270042 142.22558454 138.03079821 143.68605254 137.42529297 145.14501953 C136.49529655 147.38633545 135.57679171 149.63209717 134.66015625 151.87890625 C134.07617629 153.30235241 133.49156361 154.7255392 132.90625 156.1484375 C132.49215881 157.15769791 132.49215881 157.15769791 132.06970215 158.18734741 C130.11737089 162.88262911 130.11737089 162.88262911 129 164 C123.32465779 164.48812936 117.65033961 164.65681587 111.95678711 164.78955078 C110.04245216 164.84606847 108.12867798 164.92771124 106.21655273 165.03564453 C90.82116292 165.88834517 90.82116292 165.88834517 86.19921875 162.79464722 C82.65333561 159.36509241 80.37647438 155.28402817 78 151 C76.99867647 149.64845841 75.97083655 148.31539921 74.8984375 147.01953125 C74.47530273 146.48094482 74.05216797 145.9423584 73.61621094 145.38745117 C73.20661133 144.86771729 72.79701172 144.3479834 72.375 143.8125 C71.91899414 143.23282471 71.46298828 142.65314941 70.99316406 142.0559082 C67.63811792 137.79617682 64.25351373 133.5606793 60.859375 129.33203125 C57.87006257 125.58283058 54.93239984 121.79379229 52 118 C48.70593799 119.39446254 47.04595247 120.88121044 44.9375 123.75 C44.3290625 124.56082031 43.720625 125.37164062 43.09375 126.20703125 C42.4028125 127.12871094 41.711875 128.05039063 41 129 C39.31728978 131.14982621 37.62994454 133.29538541 35.9375 135.4375 C31.42284999 141.17606843 26.92568384 146.92821345 22.4375 152.6875 C21.82962646 153.46601318 21.22175293 154.24452637 20.59545898 155.04663086 C20.02641846 155.77760986 19.45737793 156.50858887 18.87109375 157.26171875 C18.36505615 157.91100342 17.85901855 158.56028809 17.33764648 159.22924805 C16.16781661 160.77784744 15.07655605 162.38516592 14 164 C12.20297241 164.36076355 12.20297241 164.36076355 10.00927734 164.34057617 C8.77822769 164.34023628 8.77822769 164.34023628 7.52230835 164.33988953 C6.63580597 164.32440567 5.74930359 164.30892181 4.8359375 164.29296875 C3.92872955 164.28872391 3.02152161 164.28447906 2.08682251 164.28010559 C-0.81741732 164.26328133 -3.7209691 164.2256226 -6.625 164.1875 C-8.59113583 164.17245799 -10.55728251 164.15876875 -12.5234375 164.14648438 C-17.34922439 164.11336557 -22.17449545 164.06155786 -27 164 C-30.52304669 156.29892033 -34.01341182 148.58555654 -37.375 140.8125 C-37.83777344 139.78447266 -38.30054688 138.75644531 -38.77734375 137.69726562 C-39.20917969 136.68986328 -39.64101563 135.68246094 -40.0859375 134.64453125 C-40.6744751 133.30418823 -40.6744751 133.30418823 -41.27490234 131.93676758 C-42.81688441 125.69148062 -40.72350334 119.43724449 -38.69018555 113.50292969 C-38.4557222 112.79880951 -38.22125885 112.09468933 -37.97969055 111.36923218 C-37.20579167 109.05100268 -36.42130877 106.73650572 -35.63671875 104.421875 C-35.08330365 102.77099523 -34.53056829 101.11988746 -33.97846985 99.46856689 C-32.51833071 95.10721006 -31.04926035 90.74891396 -29.57818604 86.39123535 C-28.12968992 82.09587313 -26.68904792 77.79788124 -25.24804688 73.5 C-23.53814019 68.40151097 -21.82707497 63.30342362 -20.11056519 58.20715332 C-17.24588476 49.70087857 -14.39432879 41.19060294 -11.57275391 32.66992188 C-11.29750413 31.83973667 -11.02225435 31.00955147 -10.73866367 30.15420914 C-9.43364493 26.21810899 -8.13128793 22.28117329 -6.83415222 18.34246826 C-6.36850012 16.93692372 -5.90271282 15.53142395 -5.43676758 14.12597656 C-5.03686111 12.91379456 -4.63695465 11.70161255 -4.22492981 10.45269775 C-2.96839007 6.91090139 -1.48038277 3.45422646 0 0 Z M4 4 C0.04 15.88 -3.92 27.76 -8 40 C-9.8975 45.671875 -11.795 51.34375 -13.75 57.1875 C-14.72922332 60.1310769 -15.70779033 63.07482556 -16.68359375 66.01953125 C-18.47926527 71.43633449 -20.28390898 76.84996966 -22.10205078 82.25927734 C-23.98100393 87.85040721 -25.8460803 93.44602095 -27.70349121 99.04434204 C-28.43888853 101.25294214 -29.17899377 103.45998057 -29.9239502 105.66537476 C-30.9683678 108.7598747 -31.9957538 111.85955819 -33.01953125 114.9609375 C-33.33656509 115.88746628 -33.65359894 116.81399506 -33.98023987 117.76860046 C-36.4396907 125.31550771 -35.60267989 129.88935015 -32.71484375 137.2734375 C-32.26689453 138.42714844 -31.81894531 139.58085937 -31.35742188 140.76953125 C-30.88884766 141.95933594 -30.42027344 143.14914063 -29.9375 144.375 C-29.22883789 146.19451172 -29.22883789 146.19451172 -28.50585938 148.05078125 C-27.34236751 151.03590179 -26.17359708 154.01884108 -25 157 C-3.51966009 159.72526909 -3.51966009 159.72526909 17.02783203 155.49121094 C21.53727543 151.62262938 24.1699846 146.76253581 26.72998047 141.46728516 C28.76573858 137.51238868 31.50271258 134.16673991 34.25 130.6875 C35.22245963 129.38948972 36.19128818 128.08875017 37.15625 126.78515625 C39.0660878 124.22884098 41.00364009 121.69766411 42.96875 119.18359375 C43.43764648 118.58264893 43.90654297 117.9817041 44.38964844 117.36254883 C45.27414361 116.2328015 46.16261159 115.10614941 47.05566406 113.9831543 C49.33541464 111.31216214 49.33541464 111.31216214 50 108 C50.66 108 51.32 108 52 108 C52.25523437 108.55816406 52.51046875 109.11632812 52.7734375 109.69140625 C54.17420874 112.32788969 55.81636552 114.55973922 57.625 116.9375 C58.42164063 117.98808594 59.21828125 119.03867188 60.0390625 120.12109375 C61.02580373 121.41424409 62.01280977 122.70719239 63 124 C64.27878555 125.67827897 65.55742082 127.35667245 66.8359375 129.03515625 C68.88093905 131.71973192 70.92654002 134.40383008 72.97509766 137.08569336 C73.62269043 137.93397705 74.2702832 138.78226074 74.9375 139.65625 C75.61176025 140.50799805 76.28602051 141.35974609 76.98071289 142.23730469 C79 145 79 145 80.79858398 148.30175781 C84.2387503 154.28139661 84.2387503 154.28139661 90.05499268 157.60791016 C96.04980423 158.49263176 102.03764624 158.093814 108.0625 157.75 C109.90021606 157.68973108 111.73812226 157.6349914 113.57617188 157.5859375 C118.05551604 157.45442189 122.52564859 157.2478865 127 157 C128.63435212 153.04667614 130.23591348 149.08199633 131.80957031 145.10424805 C132.34814368 143.75571839 132.89520446 142.4105439 133.45117188 141.0690918 C134.2535915 139.12870838 135.02368062 137.17789877 135.7890625 135.22265625 C136.49603271 133.47094116 136.49603271 133.47094116 137.21728516 131.68383789 C138.24122332 126.86468537 137.41816433 123.64636162 136 119 C135.72047485 118.08024887 135.44094971 117.16049774 135.1529541 116.21287537 C134.14249212 112.9993853 133.0898377 109.8021246 132.02734375 106.60546875 C131.42081634 104.76240943 130.81428925 102.91935001 130.20777512 101.07628632 C129.34313242 98.45262939 128.47442944 95.83032266 127.60599136 93.20792007 C126.4838185 89.81631218 125.36638908 86.42314301 124.2487793 83.0300293 C122.87300842 78.85374101 121.49698843 74.67753675 120.11903381 70.50196838 C117.03859201 61.16578232 113.97690988 51.82364161 110.9296875 42.4765625 C110.3378643 40.66177147 110.3378643 40.66177147 109.73408508 38.81031799 C108.22180247 34.17207021 106.70993171 29.53369014 105.20016479 24.8946228 C104.17257394 21.73789361 103.14311494 18.58177932 102.11328125 15.42578125 C101.81005951 14.49226837 101.50683777 13.55875549 101.19442749 12.59695435 C100.91797394 11.75067474 100.64152039 10.90439514 100.35668945 10.0324707 C100.11723099 9.29712601 99.87777252 8.56178131 99.63105774 7.80415344 C99.01941699 5.93314577 99.01941699 5.93314577 98 4 C66.98 4 35.96 4 4 4 Z " fill="#E5C152" transform="translate(93,49)"/>
<path d="M0 0 C5.28 0 10.56 0 16 0 C16.99 2.97 16.99 2.97 18 6 C17.38511719 6.02578125 16.77023437 6.0515625 16.13671875 6.078125 C15.32847656 6.13484375 14.52023437 6.1915625 13.6875 6.25 C12.88699219 6.29640625 12.08648437 6.3428125 11.26171875 6.390625 C8.21477249 7.21156389 7.65627866 8.33868581 6 11 C5.00202599 14.02933983 5.00202599 14.02933983 4.3125 17.25 C4.06113281 18.32765625 3.80976563 19.4053125 3.55078125 20.515625 C3.36902344 21.33546875 3.18726563 22.1553125 3 23 C2.0212793 23.01981934 1.04255859 23.03963867 0.03417969 23.06005859 C-3.60393597 23.13624624 -7.24165853 23.22494295 -10.87939453 23.31738281 C-12.45255765 23.35561829 -14.02580658 23.39048066 -15.59912109 23.421875 C-17.86326723 23.46764422 -20.12682547 23.52561761 -22.390625 23.5859375 C-23.09181458 23.59748871 -23.79300415 23.60903992 -24.51544189 23.62094116 C-28.28592631 23.67654091 -28.28592631 23.67654091 -31.74302673 25.0015564 C-34.97540383 26.43150078 -38.12268279 26.29798961 -41.5949707 26.29394531 C-42.7347789 26.30384743 -42.7347789 26.30384743 -43.89761353 26.31394958 C-46.40713518 26.33123852 -48.91620645 26.33180426 -51.42578125 26.328125 C-52.71453187 26.32754719 -52.71453187 26.32754719 -54.02931786 26.3269577 C-58.5762381 26.32213998 -63.12285575 26.30260926 -67.66967773 26.27294922 C-72.35765712 26.24584227 -77.04356377 26.27481222 -81.73136616 26.31608963 C-85.34444386 26.33690819 -88.9563053 26.31368921 -92.56923485 26.27883148 C-94.29671175 26.27007895 -96.02436164 26.27814407 -97.75167274 26.30362701 C-111.29593252 26.4820429 -111.29593252 26.4820429 -115.65682983 22.68933105 C-117.42696372 20.18548023 -118.80950198 17.82024633 -120 15 C-118.26978364 11.44687712 -116.32923059 8.20269206 -114 5 C-113.34 5 -112.68 5 -112 5 C-108 10.41176471 -108 10.41176471 -108 13 C-73.68 13 -39.36 13 -4 13 C-3.01 9.7 -2.02 6.4 -1 3 C-0.67 2.01 -0.34 1.02 0 0 Z " fill="#EBC654" transform="translate(257,205)"/>
<path d="M0 0 C0 0.66 0 1.32 0 2 C0.886875 2.268125 1.77375 2.53625 2.6875 2.8125 C8.58891514 4.92810165 8.58891514 4.92810165 11 7 C11.54107704 9.95505188 11.30514194 12.88369953 11.1875 15.875 C11.20666841 26.50640326 14.7785429 31.43466399 22 39 C26 43.69243697 26 43.69243697 26 46 C27.485 46.495 27.485 46.495 29 47 C31.07530387 49.92079805 32 51.37546731 32 55 C32.99 55 33.98 55 35 55 C36.82421875 56.8984375 36.82421875 56.8984375 38.6875 59.375 C39.62142578 60.59316406 39.62142578 60.59316406 40.57421875 61.8359375 C42 64 42 64 42 66 C54.375 65.505 54.375 65.505 67 65 C67.66 63.68 68.32 62.36 69 61 C69.625 62.8125 69.625 62.8125 70 65 C68 68 68 68 65.13354492 68.61035156 C41.34772595 70.43526102 41.34772595 70.43526102 34.45800781 66.57617188 C30.37684067 62.84700289 27.82928619 58.23435988 25.30078125 53.36914062 C23.19460544 49.53311772 20.501618 46.18958917 17.8125 42.75 C16.82659969 41.43831831 15.8434754 40.12454501 14.86328125 38.80859375 C9.34922938 31.45714828 3.75999007 24.16071493 -2 17 C-5.61729777 18.46927768 -7.3660478 20.39801615 -9.6875 23.5 C-10.28949219 24.2940625 -10.89148438 25.088125 -11.51171875 25.90625 C-13.02444963 27.92082239 -13.02444963 27.92082239 -14 30 C-14.66 30 -15.32 30 -16 30 C-16.36158203 31.07314453 -16.36158203 31.07314453 -16.73046875 32.16796875 C-18.18176932 35.4054854 -19.99994123 37.62682251 -22.3125 40.3125 C-25.1330305 43.65904583 -27.70110714 46.92446771 -29.9375 50.6875 C-30.618125 51.780625 -31.29875 52.87375 -32 54 C-32.66 54 -33.32 54 -34 54 C-34.2475 54.721875 -34.495 55.44375 -34.75 56.1875 C-36.12156591 59.2735233 -37.82441824 61.42885792 -40 64 C-40.3916333 64.7022168 -40.7832666 65.40443359 -41.18676758 66.12792969 C-43 68 -43 68 -46.1862793 68.45410156 C-47.46929932 68.4331543 -48.75231934 68.41220703 -50.07421875 68.390625 C-50.7580513 68.38496521 -51.44188385 68.37930542 -52.1464386 68.37347412 C-54.32750899 68.35110816 -56.50692753 68.30091765 -58.6875 68.25 C-60.16729395 68.229935 -61.6471137 68.21168422 -63.12695312 68.1953125 C-66.7518376 68.15124474 -70.37575756 68.08221822 -74 68 C-74.63085075 66.74511441 -75.26090107 65.48982642 -75.890625 64.234375 C-76.24157227 63.53538086 -76.59251953 62.83638672 -76.95410156 62.11621094 C-81 53.92997199 -81 53.92997199 -81 49 C-80.34 49 -79.68 49 -79 49 C-77.68373308 52.61973402 -77 55.09567131 -77 59 C-76.34 59 -75.68 59 -75 59 C-74.67 61.31 -74.34 63.62 -74 66 C-67.15955762 66.24075062 -60.34029019 66.27287946 -53.50390625 65.90234375 C-52.38056885 65.84554443 -51.25723145 65.78874512 -50.09985352 65.73022461 C-46.19305447 64.80990989 -44.56976752 63.22674139 -41.9375 60.25 C-40.92852899 58.18093677 -39.95103935 56.0963228 -39 54 C-37.40313892 51.67995492 -35.64350947 49.50319666 -33.875 47.3125 C-30.54218244 43.03825127 -27.29210827 38.71416427 -24.15625 34.29296875 C-23.58390625 33.65294922 -23.58390625 33.65294922 -23 33 C-22.34 33 -21.68 33 -21 33 C-20.87625 32.443125 -20.7525 31.88625 -20.625 31.3125 C-20 29 -20 29 -18.93359375 26.8515625 C-17.92836558 23.78120029 -18.03094987 21.36857621 -18.28222656 18.17431641 C-18.94394926 9.1744716 -18.94394926 9.1744716 -16.14453125 5.69140625 C-13.80734335 4.16251172 -11.58900473 3.03731646 -9 2 C-7.948125 1.443125 -7.948125 1.443125 -6.875 0.875 C-4.49603029 -0.23518586 -2.59269691 -0.14403872 0 0 Z " fill="#015C7B" transform="translate(147,132)"/>
<path d="M0 0 C0.33 0 0.66 0 1 0 C1.18058842 4.60500468 0.86634754 7.80071804 -1 12 C-1 12.99 -1 13.98 -1 15 C0.5159375 13.9790625 0.5159375 13.9790625 2.0625 12.9375 C4.82925672 11.39364975 6.03681759 10.99861066 9.3125 10.875 C19.6321745 14.02337527 19.6321745 14.02337527 23 18 C24.94055022 23.41204351 25.06267938 29.61448773 23 35 C19.76804479 39.21766929 15.0444876 41.59236963 10 43 C7.02169476 42.3135112 4.71283954 41.35641977 2 40 C2 39.01 2 38.02 2 37 C1.34 37 0.68 37 0 37 C-0.66 33.7 -1.32 30.4 -2 27 C-2.99 26.67 -3.98 26.34 -5 26 C-6.3899408 23.2201184 -6.18488204 21.0813674 -6 18 C-5.69835937 17.401875 -5.39671875 16.80375 -5.0859375 16.1875 C-3.74111984 13.47851479 -3.12781014 10.81695002 -2.4375 7.875 C-1.09722222 2.19444444 -1.09722222 2.19444444 0 0 Z " fill="#005E7E" transform="translate(70,154)"/>
<path d="M0 0 C33.99 0 67.98 0 103 0 C102.34 1.98 101.68 3.96 101 6 C68 6 35 6 1 6 C0.67 4.02 0.34 2.04 0 0 Z " fill="#2A2821" transform="translate(93,249)"/>
<path d="M0 0 C0.33 0.99 0.66 1.98 1 3 C1.66 3 2.32 3 3 3 C5.82989611 8.65979222 5.78405737 13.4246731 3.984375 19.3359375 C0.58623418 28.60917722 0.58623418 28.60917722 -3 31 C-3.99 32.485 -3.99 32.485 -5 34 C-6.813492 32.85573734 -8.62576725 31.70954608 -10.4375 30.5625 C-11.44683594 29.92441406 -12.45617187 29.28632813 -13.49609375 28.62890625 C-16 27 -16 27 -17 26 C-17.07325168 23.13732433 -17.09238205 20.299281 -17.0625 17.4375 C-17.05798828 16.63119141 -17.05347656 15.82488281 -17.04882812 14.99414062 C-17.03700518 12.99606244 -17.01906914 10.99802217 -17 9 C-15.68 8.67 -14.36 8.34 -13 8 C-13 7.34 -13 6.68 -13 6 C-11.40233897 5.13372601 -9.79660056 4.28233535 -8.1875 3.4375 C-7.29417969 2.96183594 -6.40085938 2.48617187 -5.48046875 1.99609375 C-3 1 -3 1 0 2 C0 1.34 0 0.68 0 0 Z " fill="#015F7E" transform="translate(219,163)"/>
<path d="M0 0 C0.598125 0.226875 1.19625 0.45375 1.8125 0.6875 C2.121875 1.780625 2.43125 2.87375 2.75 4 C3.39587897 6.24157994 4.0748117 8.4744351 4.8125 10.6875 C5.4725 10.6875 6.1325 10.6875 6.8125 10.6875 C8.3203125 12.65625 8.3203125 12.65625 9.9375 15.1875 C10.47632813 16.0228125 11.01515625 16.858125 11.5703125 17.71875 C11.98023438 18.3684375 12.39015625 19.018125 12.8125 19.6875 C12.4825 20.3475 12.1525 21.0075 11.8125 21.6875 C8.1825 17.0675 4.5525 12.4475 0.8125 7.6875 C-3.14259654 9.66504827 -4.32324632 10.77778141 -6.875 14.1875 C-7.77798828 15.37859375 -7.77798828 15.37859375 -8.69921875 16.59375 C-10.21194963 18.60832239 -10.21194963 18.60832239 -11.1875 20.6875 C-11.8475 20.6875 -12.5075 20.6875 -13.1875 20.6875 C-13.54908203 21.76064453 -13.54908203 21.76064453 -13.91796875 22.85546875 C-15.36926932 26.0929854 -17.18744123 28.31432251 -19.5 31 C-22.3205305 34.34654583 -24.88860714 37.61196771 -27.125 41.375 C-27.805625 42.468125 -28.48625 43.56125 -29.1875 44.6875 C-29.8475 44.6875 -30.5075 44.6875 -31.1875 44.6875 C-31.435 45.409375 -31.6825 46.13125 -31.9375 46.875 C-33.30906591 49.9610233 -35.01191824 52.11635792 -37.1875 54.6875 C-37.77494995 55.7408252 -37.77494995 55.7408252 -38.37426758 56.81542969 C-40.1875 58.6875 -40.1875 58.6875 -43.3737793 59.14160156 C-44.65679932 59.1206543 -45.93981934 59.09970703 -47.26171875 59.078125 C-47.9455513 59.07246521 -48.62938385 59.06680542 -49.3339386 59.06097412 C-51.51500899 59.03860816 -53.69442753 58.98841765 -55.875 58.9375 C-57.35479395 58.917435 -58.8346137 58.89918422 -60.31445312 58.8828125 C-63.9393376 58.83874474 -67.56325756 58.76971822 -71.1875 58.6875 C-71.81835075 57.43261441 -72.44840107 56.17732642 -73.078125 54.921875 C-73.42907227 54.22288086 -73.78001953 53.52388672 -74.14160156 52.80371094 C-78.1875 44.61747199 -78.1875 44.61747199 -78.1875 39.6875 C-77.5275 39.6875 -76.8675 39.6875 -76.1875 39.6875 C-74.87123308 43.30723402 -74.1875 45.78317131 -74.1875 49.6875 C-73.5275 49.6875 -72.8675 49.6875 -72.1875 49.6875 C-71.8575 51.9975 -71.5275 54.3075 -71.1875 56.6875 C-64.34705762 56.92825062 -57.52779019 56.96037946 -50.69140625 56.58984375 C-49.56806885 56.53304443 -48.44473145 56.47624512 -47.28735352 56.41772461 C-43.38055447 55.49740989 -41.75726752 53.91424139 -39.125 50.9375 C-38.11602899 48.86843677 -37.13853935 46.7838228 -36.1875 44.6875 C-34.59063892 42.36745492 -32.83100947 40.19069666 -31.0625 38 C-27.72968244 33.72575127 -24.47960827 29.40166427 -21.34375 24.98046875 C-20.9621875 24.55378906 -20.580625 24.12710938 -20.1875 23.6875 C-19.5275 23.6875 -18.8675 23.6875 -18.1875 23.6875 C-18.001875 22.7903125 -18.001875 22.7903125 -17.8125 21.875 C-17.1875 19.6875 -17.1875 19.6875 -15.1875 16.6875 C-14.5275 16.6875 -13.8675 16.6875 -13.1875 16.6875 C-13.105 16.130625 -13.0225 15.57375 -12.9375 15 C-11.94854459 11.95072081 -10.33992534 10.03560037 -8.1875 7.6875 C-7.5275 7.6875 -6.8675 7.6875 -6.1875 7.6875 C-6.084375 6.924375 -5.98125 6.16125 -5.875 5.375 C-4.96779776 1.82866396 -3.97999393 -0.56857056 0 0 Z " fill="#054E67" transform="translate(144.1875,141.3125)"/>
<path d="M0 0 C0.81973801 -0.00029205 1.63947601 -0.00058411 2.48405457 -0.00088501 C5.19496222 0.0005089 7.9055954 0.01607297 10.61645508 0.03173828 C12.49546661 0.03546819 14.37448009 0.03831527 16.25349426 0.04031372 C21.2002804 0.04795189 26.1469492 0.06760199 31.09368896 0.08972168 C36.14097506 0.11017612 41.18828011 0.11931458 46.2355957 0.12939453 C56.13994415 0.15084768 66.04420548 0.18498588 75.94848633 0.22705078 C76.44348633 3.19705078 76.44348633 3.19705078 76.94848633 6.22705078 C75.95848633 5.23705078 75.95848633 5.23705078 74.94848633 4.22705078 C74.94848633 3.23705078 74.94848633 2.24705078 74.94848633 1.22705078 C64.29143235 1.31130664 53.63453046 1.4061319 42.97769356 1.51457787 C38.02967272 1.56459499 33.08167379 1.61092438 28.13354492 1.64892578 C23.36130667 1.68571038 18.58924943 1.73205135 13.81716537 1.78511429 C11.99347981 1.80369465 10.1697554 1.81878904 8.34601212 1.83039474 C5.79811176 1.84719518 3.2506293 1.87621436 0.70288086 1.90820312 C-0.05668915 1.91036331 -0.81625916 1.9125235 -1.59884644 1.91474915 C-5.78211933 1.84732107 -5.78211933 1.84732107 -9.05151367 4.22705078 C-9.82639693 6.00066905 -9.82639693 6.00066905 -10.45385742 8.04345703 C-10.70458008 8.80851562 -10.95530273 9.57357422 -11.21362305 10.36181641 C-11.46950195 11.16296875 -11.72538086 11.96412109 -11.98901367 12.78955078 C-12.49812826 14.35335286 -13.00724284 15.91715495 -13.51635742 17.48095703 C-13.76780518 18.26108154 -14.01925293 19.04120605 -14.27832031 19.8449707 C-15.29222841 22.96865283 -16.33774974 26.08138318 -17.38696289 29.19335938 C-18.36346227 32.18169142 -19.21347614 35.19722277 -20.05151367 38.22705078 C-19.39151367 38.22705078 -18.73151367 38.22705078 -18.05151367 38.22705078 C-18.76374338 40.60114981 -19.47650281 42.975069 -20.19213867 45.34814453 C-20.75479452 47.23304163 -21.30728858 49.12100917 -21.84838867 51.01220703 C-22.10104492 51.88748047 -22.35370117 52.76275391 -22.61401367 53.66455078 C-22.84217773 54.46763672 -23.0703418 55.27072266 -23.30541992 56.09814453 C-24.05151367 58.22705078 -24.05151367 58.22705078 -26.05151367 61.22705078 C-26.55137876 62.54537628 -27.00597267 63.88131957 -27.42651367 65.22705078 C-28.55410136 68.74079625 -29.76597964 72.20538478 -31.05151367 75.66455078 C-32.71988402 80.16217276 -34.06246943 84.68013121 -35.24291992 89.32861328 C-35.50975586 89.95509766 -35.7765918 90.58158203 -36.05151367 91.22705078 C-37.53651367 91.72205078 -37.53651367 91.72205078 -39.05151367 92.22705078 C-39.54651367 93.21705078 -39.54651367 93.21705078 -40.05151367 94.22705078 C-39.3497854 88.83565715 -37.76740889 83.90108746 -36.06713867 78.76220703 C-35.76966736 77.85184189 -35.47219604 76.94147675 -35.16571045 76.00352478 C-34.21502392 73.09752301 -33.25832649 70.19354045 -32.30151367 67.28955078 C-31.67352153 65.37236011 -31.04591378 63.45504349 -30.41870117 61.53759766 C-26.27811639 48.8926911 -22.07680077 36.26860972 -17.84838867 23.65283203 C-17.50807617 22.63640625 -17.16776367 21.61998047 -16.81713867 20.57275391 C-16.125543 18.50727685 -15.43278875 16.44218744 -14.73901367 14.37744141 C-14.40385742 13.37519531 -14.06870117 12.37294922 -13.72338867 11.34033203 C-13.42529297 10.45128174 -13.12719727 9.56223145 -12.82006836 8.64624023 C-12.01775878 6.28783899 -12.01775878 6.28783899 -11.63452148 4.0324707 C-9.98090813 -1.08832945 -4.35521211 -0.04042512 0 0 Z " fill="#064D65" transform="translate(111.051513671875,59.77294921875)"/>
<path d="M0 0 C0.598125 0.33 1.19625 0.66 1.8125 1 C4.05386471 2.20787988 4.05386471 2.20787988 7 2 C9.26171875 4.3359375 9.26171875 4.3359375 11.6875 7.375 C12.49574219 8.37273437 13.30398437 9.37046875 14.13671875 10.3984375 C16 13 16 13 16 15 C16.99 15.33 17.98 15.66 19 16 C21.07530387 18.92079805 22 20.37546731 22 24 C22.99 24 23.98 24 25 24 C26.82421875 25.8984375 26.82421875 25.8984375 28.6875 28.375 C29.31011719 29.18710938 29.93273437 29.99921875 30.57421875 30.8359375 C32 33 32 33 32 35 C44.375 34.505 44.375 34.505 57 34 C57.66 32.68 58.32 31.36 59 30 C59.625 31.8125 59.625 31.8125 60 34 C58 37 58 37 55.13354492 37.61035156 C31.34772595 39.43526102 31.34772595 39.43526102 24.45800781 35.57617188 C20.38581502 31.8552032 17.85591232 27.2637516 15.3359375 22.40869141 C13.08649365 18.35295072 10.1767461 14.82140345 7.3125 11.1875 C1.60505982 3.72636694 1.60505982 3.72636694 0 0 Z " fill="#064C63" transform="translate(157,163)"/>
<path d="M0 0 C-1.69258044 3.89864034 -4.25988548 7.06607958 -6.875 10.375 C-9.45637796 13.65342661 -11.98230622 16.91344172 -14.2578125 20.4140625 C-15.12019531 21.69410156 -15.12019531 21.69410156 -16 23 C-16.33 23 -16.66 23 -17 23 C-17 17.39 -17 11.78 -17 6 C-4.8125 -0.42857143 -4.8125 -0.42857143 0 0 Z " fill="#015E7E" transform="translate(123,166)"/>
<path d="M0 0 C1.9935996 2.99039941 2.93650139 5.45120001 4.05859375 8.84765625 C4.44466797 10.01103516 4.83074219 11.17441406 5.22851562 12.37304688 C5.62748047 13.59056641 6.02644531 14.80808594 6.4375 16.0625 C6.83259766 17.25294922 7.22769531 18.44339844 7.63476562 19.66992188 C9.62754211 25.70130362 11.55835068 31.74358484 13.35864258 37.83520508 C14.5664557 41.91197665 15.85812819 45.96326839 17.1328125 50.01953125 C17.90451892 52.67183755 18.50797618 55.28382767 19 58 C16.30036202 54.77302748 14.89909201 51.5561785 13.4375 47.625 C12.81681641 45.97371094 12.81681641 45.97371094 12.18359375 44.2890625 C10.51324884 39.64737797 8.97797675 34.99337732 7.625 30.25 C6.58631097 26.72794784 5.36757388 23.38114122 3.9375 20 C1.2631537 13.49344865 -0.14957616 7.04254407 0 0 Z " fill="#0B495D" transform="translate(193,81)"/>
<path d="M0 0 C0.66 0 1.32 0 2 0 C2.51046875 0.81855469 3.0209375 1.63710937 3.546875 2.48046875 C6.26793507 5.27518809 6.65419097 5.36834448 10.328125 5.48828125 C11.96946243 5.45518977 13.61044165 5.39575882 15.25 5.3125 C16.09046875 5.28994141 16.9309375 5.26738281 17.796875 5.24414062 C19.86534964 5.18537714 21.93290488 5.09569885 24 5 C23.030625 4.731875 22.06125 4.46375 21.0625 4.1875 C20.051875 3.795625 19.04125 3.40375 18 3 C17.67 2.01 17.34 1.02 17 0 C21.99213851 0.46801299 26.12963993 2.91715737 30 6 C30 6.66 30 7.32 30 8 C25.9382411 8.20364742 21.8777944 8.32774825 17.8125 8.4375 C16.08676758 8.52547852 16.08676758 8.52547852 14.32617188 8.61523438 C5.9677782 8.78482497 5.9677782 8.78482497 3.08349609 6.44580078 C0 2.18981481 0 2.18981481 0 0 Z " fill="#0C8BA7" transform="translate(184,190)"/>
<path d="M0 0 C0.56203125 0.22816406 1.1240625 0.45632812 1.703125 0.69140625 C0.919375 1.12453125 0.135625 1.55765625 -0.671875 2.00390625 C-3.51385875 3.58360872 -3.51385875 3.58360872 -5.296875 6.69140625 C-3.52512681 6.60417247 -1.75440123 6.4959897 0.015625 6.37890625 C1.49482422 6.29189453 1.49482422 6.29189453 3.00390625 6.203125 C5.94696957 5.64517812 6.88495499 5.00600493 8.703125 2.69140625 C9.363125 3.02140625 10.023125 3.35140625 10.703125 3.69140625 C9.59057617 5.66699219 9.59057617 5.66699219 7.703125 7.69140625 C4.8840332 8.14550781 4.8840332 8.14550781 1.50390625 8.08203125 C0.29541016 8.06914062 -0.91308594 8.05625 -2.15820312 8.04296875 C-3.42083984 8.00945312 -4.68347656 7.9759375 -5.984375 7.94140625 C-7.25861328 7.92335937 -8.53285156 7.9053125 -9.84570312 7.88671875 C-12.99684341 7.83951066 -16.1464864 7.77367009 -19.296875 7.69140625 C-19.626875 6.37140625 -19.956875 5.05140625 -20.296875 3.69140625 C-19.183125 4.14515625 -18.069375 4.59890625 -16.921875 5.06640625 C-13.81874402 5.88912247 -12.62600307 5.84712804 -9.6796875 4.453125 C-7.95429265 3.33955414 -6.25669504 2.18140325 -4.59375 0.9765625 C-2.296875 -0.30859375 -2.296875 -0.30859375 0 0 Z " fill="#0D7E9B" transform="translate(92.296875,190.30859375)"/>
<path d="M0 0 C0.33 0 0.66 0 1 0 C1.2708953 4.82486502 0.3998012 8.31202694 -1.3125 12.8125 C-1.77011719 14.04355469 -2.22773437 15.27460937 -2.69921875 16.54296875 C-3.12847656 17.68378906 -3.55773437 18.82460937 -4 20 C-5.81238709 25.04144357 -7.24840844 30.02308416 -8.4375 35.25 C-9.50446839 39.69948522 -10.62335917 42.73979506 -14 46 C-12.56490697 38.86891916 -10.48240581 32.12613006 -8.125 25.25 C-7.40772154 23.13059131 -6.69156671 21.01080201 -5.9765625 18.890625 C-5.6352832 17.87935547 -5.29400391 16.86808594 -4.94238281 15.82617188 C-3.19360386 10.58164723 -1.5733573 5.29972986 0 0 Z " fill="#0E4555" transform="translate(100,62)"/>
<path d="M0 0 C0.66 0 1.32 0 2 0 C3.31626692 3.61973402 4 6.09567131 4 10 C4.66 10 5.32 10 6 10 C6.66 12.31 7.32 14.62 8 17 C22.85 17.495 22.85 17.495 38 18 C38 18.33 38 18.66 38 19 C27.77 19 17.54 19 7 19 C0 5 0 5 0 0 Z " fill="#0B4859" transform="translate(66,181)"/>
<path d="M0 0 C2.03204189 7.39266095 -1.5166809 14.99704015 -4 22 C-4.66 22 -5.32 22 -6 22 C-6.33 22.66 -6.66 23.32 -7 24 C-6.31184495 18.61671112 -4.69258365 13.73143827 -2.9375 8.625 C-2.51500977 7.37783203 -2.51500977 7.37783203 -2.08398438 6.10546875 C-1.39342899 4.06891559 -0.69727821 2.03426119 0 0 Z " fill="#0B485C" transform="translate(78,130)"/>
<path d="M0 0 C0.33 0 0.66 0 1 0 C1.51536986 5.79791091 0.06135975 9.88211322 -2.04296875 15.265625 C-3.30770984 18.87917098 -3.71273849 22.19378505 -4 26 C-6 24 -6 24 -6.25 21.125 C-6 18 -6 18 -5.08203125 16.1875 C-3.74192673 13.47826342 -3.12739405 10.81517672 -2.4375 7.875 C-1.09722222 2.19444444 -1.09722222 2.19444444 0 0 Z " fill="#0B485C" transform="translate(70,154)"/>
<path d="M0 0 C1.68272986 0.62501395 3.34630643 1.30177383 5 2 C5.9075 2.350625 6.815 2.70125 7.75 3.0625 C10.45141547 5.38871887 10.42962405 6.24700905 10.8125 9.6875 C10.89726123 11.1238593 10.96682761 12.56152439 11 14 C10.34 14 9.68 14 9 14 C8.76925781 13.48050781 8.53851563 12.96101562 8.30078125 12.42578125 C6.08893466 7.69610138 3.84022905 4.52020996 0 1 C0 0.67 0 0.34 0 0 Z " fill="#025D7B" transform="translate(170,173)"/>
<path d="M0 0 C0.66 0.33 1.32 0.66 2 1 C2.75414949 8.69232482 0.34312406 15.10100761 -3 22 C-3.66 22.33 -4.32 22.66 -5 23 C-4.71682074 21.39431334 -4.42312209 19.79047953 -4.125 18.1875 C-3.96257812 17.29417969 -3.80015625 16.40085938 -3.6328125 15.48046875 C-3 13 -3 13 -1 10 C-0.54398739 7.49103314 -0.54398739 7.49103314 -0.375 4.8125 C-0.30023438 3.91144531 -0.22546875 3.01039063 -0.1484375 2.08203125 C-0.09945312 1.39496094 -0.05046875 0.70789063 0 0 Z " fill="#0C485B" transform="translate(222,170)"/>
<path d="M0 0 C1.875 0.1875 1.875 0.1875 4 1 C5.25 3.5625 5.25 3.5625 6 6 C6.66 6 7.32 6 8 6 C9.5078125 7.96875 9.5078125 7.96875 11.125 10.5 C11.66382813 11.3353125 12.20265625 12.170625 12.7578125 13.03125 C13.37269531 14.00578125 13.37269531 14.00578125 14 15 C13.67 15.66 13.34 16.32 13 17 C12.22914063 16.00097656 11.45828125 15.00195312 10.6640625 13.97265625 C9.65124026 12.66911651 8.63820855 11.3657395 7.625 10.0625 C6.86316406 9.0734668 6.86316406 9.0734668 6.0859375 8.06445312 C5.59609375 7.43603516 5.10625 6.80761719 4.6015625 6.16015625 C4.15119629 5.57886963 3.70083008 4.99758301 3.23681641 4.39868164 C2.03145627 2.8599827 2.03145627 2.8599827 0 2 C0 1.34 0 0.68 0 0 Z " fill="#0D4658" transform="translate(143,146)"/>
<path d="M0 0 C0.556875 0.226875 1.11375 0.45375 1.6875 0.6875 C0.90375 1.120625 0.12 1.55375 -0.6875 2 C-3.52948375 3.57970247 -3.52948375 3.57970247 -5.3125 6.6875 C-8.4375 6.875 -8.4375 6.875 -11.3125 6.6875 C-4.51779801 -0.61051325 -4.51779801 -0.61051325 0 0 Z " fill="#0991AE" transform="translate(92.3125,190.3125)"/>
<path d="M0 0 C0.66 0 1.32 0 2 0 C0.33333333 5 -1.33333333 10 -3 15 C-3.33 15 -3.66 15 -4 15 C-3.63495936 9.33557626 -2.9445679 4.99296295 0 0 Z " fill="#03536E" transform="translate(82,124)"/>
<path d="M0 0 C3.48105676 1.74052838 4.68797602 5.46378298 6 9 C6.30345417 11.45522007 6.20695667 13.51651992 6 16 C1.96468007 11.96468007 1.30845869 5.42075742 0 0 Z " fill="#064E65" transform="translate(200,108)"/>
<path d="M0 0 C0.66 0 1.32 0 2 0 C1.45269624 3.92234364 0.82170566 7.45779454 -1 11 C-1.99 11.33 -2.98 11.66 -4 12 C-3.52309796 10.37433394 -3.04340334 8.74948689 -2.5625 7.125 C-2.29566406 6.22007812 -2.02882812 5.31515625 -1.75390625 4.3828125 C-1 2 -1 2 0 0 Z " fill="#D6B54F" transform="translate(222,231)"/>
<path d="M0 0 C0.84062397 3.09773244 1.08935201 5.78332751 1 9 C0.01 9.495 0.01 9.495 -1 10 C-1.72159424 11.64363134 -2.39351421 13.31050386 -3 15 C-4.43410153 11.21180727 -3.51009497 8.93478721 -2.0625 5.25 C-1.49208984 3.77273437 -1.49208984 3.77273437 -0.91015625 2.265625 C-0.60980469 1.51796875 -0.30945313 0.7703125 0 0 Z " fill="#0C4658" transform="translate(83,115)"/>
<path d="M0 0 C2.00993705 3.01490557 2.72623341 5.2149927 3.625 8.6875 C3.88539063 9.68136719 4.14578125 10.67523438 4.4140625 11.69921875 C4.60742188 12.45847656 4.80078125 13.21773437 5 14 C1.86777869 12.43388934 1.29677335 10.18298914 0 7 C-0.1875 3.125 -0.1875 3.125 0 0 Z " fill="#0E4556" transform="translate(199,99)"/>
<path d="M0 0 C0.33 0.66 0.66 1.32 1 2 C1.99 2.33 2.98 2.66 4 3 C2.02 3.99 0.04 4.98 -2 6 C-1.125 1.125 -1.125 1.125 0 0 Z " fill="#0C7C99" transform="translate(70,164)"/>
</svg>
